<?xml version="1.0" standalone="no"?>
<!DOCTYPE svg PUBLIC "-//W3C//DTD SVG 1.1//EN" "http://www.w3.org/Graphics/SVG/1.1/DTD/svg11.dtd" >
<svg xmlns="http://www.w3.org/2000/svg" xmlns:xlink="http://www.w3.org/1999/xlink" version="1.1">
<metadata></metadata>
<defs>
<font id="tourneythin" horiz-adv-x="1283" >
<font-face units-per-em="2048" ascent="1638" descent="-410" />
<missing-glyph horiz-adv-x="563" />
<glyph unicode="&#xfb01;" horiz-adv-x="1999" d="M284 0v817h-207v289h207v219l211 211h460v-269h-337l-45 -46v-115h1107v-816h274v-290h-835v290h273v527h-819v-817h-289zM311 28h235v816h873v-582h-272v-234h779v234h-273v816h-1107v155l61 61h321v214h-421l-196 -194v-236h-207v-234h207v-816zM1351 1267v269h329 v-269h-329zM1378 1294h275v214h-275v-214z" />
<glyph unicode="&#xfb02;" horiz-adv-x="1940" d="M284 0v817h-207v289h207v219l211 211h1123v-1246h276v-290h-841v290h276v977h-711l-45 -46v-115h321v-289h-321v-817h-289zM311 28h235v816h320v234h-320v155l61 61h750v-1032h-277v-234h787v234h-277v1246h-1083l-196 -194v-236h-207v-234h207v-816z" />
<glyph horiz-adv-x="0" />
<glyph horiz-adv-x="682" />
<glyph unicode="&#xd;" horiz-adv-x="1228" />
<glyph unicode=" "  horiz-adv-x="563" />
<glyph unicode="&#x09;" horiz-adv-x="563" />
<glyph unicode="&#xa0;" horiz-adv-x="563" />
<glyph unicode="!" horiz-adv-x="571" d="M201 397l-64 708v357h293v-357l-63 -708h-166zM227 426h113l61 680v328h-235v-328zM125 0v301h321v-301h-321zM154 29h264v243h-264v-243z" />
<glyph unicode="&#x22;" horiz-adv-x="880" d="M166 969l-47 176v289h309v-289l-49 -176h-213zM187 997h170l42 156v252h-252v-252zM504 969l-47 176v289h309v-289l-49 -176h-213zM525 997h170l42 156v252h-252v-252z" />
<glyph unicode="#" horiz-adv-x="1376" d="M237 0l31 305h-166v252h193l32 309h-167v252h192l34 316h292l-34 -316h167l34 316h292l-34 -316h171v-252h-197l-31 -309h171v-252h-199l-32 -305h-291l32 305h-168l-32 -305h-290zM553 529l38 365h226l-37 -365h-227zM587 557h168l30 309h-167zM269 28h233l32 305h226 l-31 -305h232l31 305h198v196h-178l38 365h196v197h-175l34 315h-233l-33 -315h-227l34 315h-232l-34 -315h-193v-197h171l-37 -365h-191v-196h171z" />
<glyph unicode="$" horiz-adv-x="1312" d="M500 -98v98h-154l-211 211v258h290v-117l62 -62h318l62 62v174l-62 63h-453l-211 211v423l211 211h148v98h287v-98h140l211 -211v-258h-290v116l-63 63h-291l-64 -63v-140l64 -62h452l211 -211v-457l-211 -211h-159v-98h-287zM527 -71h233v99h175l194 194v433l-194 196 h-454l-78 79v163l78 78h316l79 -78v-101h234v219l-195 195h-155v98h-233v-98h-163l-195 -195v-400l195 -195h452l79 -78v-197l-79 -79h-340l-79 79v100h-234v-219l194 -194h170v-99z" />
<glyph unicode="%" horiz-adv-x="1592" d="M187 0l1031 1434h228l-1030 -1434h-229zM230 23h172l1002 1389h-172zM253 726l-135 135v437l135 136h365l136 -136v-437l-136 -135h-365zM263 750h345l121 122v415l-121 123h-345l-122 -123v-415zM332 887l-52 52v282l52 52h207l53 -52v-282l-53 -52h-207zM343 911h184 l40 40v257l-40 40h-184l-40 -40v-257zM974 -81l-135 135v438l135 135h365l136 -135v-438l-136 -135h-365zM984 -57h345l121 123v414l-121 123h-345l-122 -123v-414zM1053 80l-53 52v282l53 52h207l53 -52v-282l-53 -52h-207zM1064 104h184l40 40v257l-40 40h-184l-40 -40 v-257z" />
<glyph unicode="&#x26;" horiz-adv-x="1312" d="M356 -1l-211 211v371l251 253l-152 159v229l211 211h239l211 -211v-229l-153 -165l166 -179v76h249v-390l-232 -336h-579zM458 289h290l71 91l-247 263l-157 -162v-149zM446 261l-58 60v172l184 192l283 -301l-93 -123h-316zM368 27h551l221 316v354h-195v-120v0 l-232 251l165 177v205l-195 195h-217l-195 -195v-205l164 -172l-262 -264v-348zM574 982l-86 101v36l52 60h70l52 -60v-36zM574 1026l60 68v15l-36 42h-46l-36 -42v-15z" />
<glyph unicode="'" horiz-adv-x="546" d="M166 969l-47 176v289h309v-289l-49 -176h-213zM187 997h170l42 156v252h-252v-252z" />
<glyph unicode="(" horiz-adv-x="802" d="M373 -410l-219 220v1507l219 219h396l-314 -305v-1335l314 -306h-396zM385 -381h313l-272 264v1360l272 264h-313l-203 -202v-1483z" />
<glyph unicode=")" horiz-adv-x="802" d="M438 -410h-396l314 306v1335l-314 305h396l219 -219v-1507zM426 -381l203 203v1483l-203 202h-313l272 -264v-1360l-272 -264h313z" />
<glyph unicode="*" horiz-adv-x="823" d="M301 918v115l-106 -71l-120 181l144 94l-146 98l117 179l111 -73v124h223v-123l109 72l118 -179l-147 -98l145 -94l-120 -181l-105 69v-113h-223zM330 946h166v139l125 -84l88 134l-156 102l158 106l-86 132l-129 -86v147h-166v-150l-131 89l-86 -132l157 -106l-155 -102 l88 -134l127 86v-141z" />
<glyph unicode="+" horiz-adv-x="856" d="M297 295v192h-193v263h193v192h262v-192h193v-263h-193v-192h-262zM326 324h204v192h193v205h-193v192h-204v-192h-193v-205h193v-192z" />
<glyph unicode="," horiz-adv-x="571" d="M123 -164l63 164h-49v301h309v-282l-128 -183h-195zM168 -135h135l115 164v243h-252v-243h63v0z" />
<glyph unicode="-" horiz-adv-x="856" d="M104 487v263h648v-263h-648zM133 516h590v205h-590v-205z" />
<glyph unicode="." horiz-adv-x="571" d="M125 0v301h321v-301h-321zM154 29h264v243h-264v-243z" />
<glyph unicode="/" horiz-adv-x="638" d="M39 -206l256 1742h290l-256 -1742h-290zM71 -178h234l248 1686h-235z" />
<glyph unicode="0" horiz-adv-x="1152" d="M288 0l-211 211v1012l211 211h576l211 -211v-1012l-211 -211h-576zM470 290h273l63 62v547zM438 262v29l370 667h26v-617l-79 -79h-317zM299 28h554l195 194v989l-195 195h-554l-195 -195v-989zM319 496v597l78 78h303v-28l-356 -647h-25zM346 557l323 587h-259l-64 -63 v-524z" />
<glyph unicode="1" horiz-adv-x="991" d="M77 0v290h272v805l-272 -77v318l368 98h193v-1144h276v-290h-837zM104 28h783v234h-276v1144h-161l-346 -89v-261l273 79v-873h-273v-234z" />
<glyph unicode="2" horiz-adv-x="1105" d="M77 0v591l211 211h390l62 62v217l-62 63h-250l-62 -63v-146h-289v288l211 211h530l211 -211v-500l-211 -211h-390l-62 -62v-160h663v-290h-952zM103 28h899v234h-664v199l79 79h390l195 194v477l-195 195h-508l-196 -195v-248h235v130l79 78h272l79 -78v-240l-79 -79 h-390l-196 -195v-551z" />
<glyph unicode="3" horiz-adv-x="1098" d="M288 0l-211 211v277h289v-136l62 -62h243l62 62v157l-62 62h-221v289h220l63 69v152l-62 63h-243l-62 -63v-136h-289v278l211 211h523l211 -211v-442l-65 -64l65 -67v-439l-211 -211h-523zM299 28h501l195 194v416l-79 77l79 79v417l-195 195h-501l-196 -195v-238h235 v120l79 78h265l79 -78v-175l-79 -85h-205v-234h205l79 -79v-179l-79 -79h-265l-79 79v120h-235v-239z" />
<glyph unicode="4" horiz-adv-x="1114" d="M603 0v329h-552v335l401 770h441v-816h170v-289h-170v-329h-290zM631 28h234v328h170v235h-170v815h-398l-388 -750v-300h552v-328zM341 591v80l238 475h52v-555h-290zM370 618h233v499h-9l-224 -452v-47z" />
<glyph unicode="5" horiz-adv-x="1112" d="M288 0l-211 211v258h289v-117l62 -62h256l62 62v306l-62 63h-246l-88 -98h-273v811h953v-290h-664v-164l30 31h428l211 -212v-588l-211 -211h-536zM299 28h514l195 194v565l-195 196h-405l-70 -70v0v258h664v235h-898v-756h234l89 99h268l79 -79v-329l-79 -79h-278 l-79 79v100h-234v-219z" />
<glyph unicode="6" horiz-adv-x="1107" d="M288 0l-211 211v1012l211 211h526l212 -211v-218h-290v76l-62 63h-246l-62 -63v-141l30 31h424l211 -211v-549l-211 -211h-532zM417 262l-79 79v269l99 99h254l79 -79v-289l-79 -79h-274zM428 290h252l62 62v266l-62 63h-231l-83 -82v-247zM299 28h510l195 194v527 l-195 194h-401l-70 -70v220l79 78h268l79 -78v-61h234v179l-195 195h-504l-195 -195v-989z" />
<glyph unicode="7" horiz-adv-x="1007" d="M86 0l571 988v156h-616v290h905v-507l-513 -927h-347zM137 28h280l502 908v470h-850v-235h616v-190z" />
<glyph unicode="8" horiz-adv-x="1105" d="M288 0l-211 211v437l92 88l-92 91v396l211 211h530l211 -211v-396l-92 -93l92 -86v-437l-211 -211h-530zM417 262l-79 79v199l79 78h272l79 -78v-199l-79 -79h-272zM299 28h508l195 194v418l-101 94l101 101v376l-195 195h-508l-196 -195v-376l102 -99l-102 -96v-418z M417 853l-79 84v156l79 78h272l79 -78v-156l-79 -84h-272zM428 290h250l62 62v176l-62 63h-250l-62 -63v-176zM429 881h248l63 67v133l-62 63h-250l-62 -63v-133z" />
<glyph unicode="9" horiz-adv-x="1107" d="M820 1434l211 -211v-1012l-211 -211h-526l-212 211v218h290v-76l62 -63h246l62 63v141l-30 -31h-424l-211 211v549l211 211h532zM691 1172l79 -79v-269l-99 -99h-254l-79 79v289l79 79h274zM680 1144h-252l-62 -62v-266l62 -63h231l83 82v247zM809 1406h-510l-195 -194 v-527l195 -194h401l70 70v-220l-79 -78h-268l-79 78v61h-234v-179l195 -195h504l195 195v989z" />
<glyph unicode=":" horiz-adv-x="571" d="M125 806v301h321v-301h-321zM154 835h264v243h-264v-243zM125 0v301h321v-301h-321zM154 29h264v243h-264v-243z" />
<glyph unicode=";" horiz-adv-x="571" d="M123 -164l63 164h-49v301h309v-282l-128 -183h-195zM168 -135h135l115 164v243h-252v-243h63v0zM125 806v301h321v-301h-321zM154 835h264v243h-264v-243z" />
<glyph unicode="&#x3c;" horiz-adv-x="845" d="M731 -2l-616 429v354l616 433v-367l-371 -243v0l371 -237v-369zM702 54v294l-368 236v41l368 239v294l-559 -392v-324z" />
<glyph unicode="=" horiz-adv-x="856" d="M104 282v263h648v-263h-648zM133 311h590v205h-590v-205zM104 692v263h648v-263h-648zM133 721h590v205h-590v-205z" />
<glyph unicode="&#x3e;" horiz-adv-x="845" d="M115 -2v369l370 237v0l-370 243v367l616 -433v-354zM143 54l559 388v324l-559 392v-294l369 -239v-41l-369 -236v-294z" />
<glyph unicode="?" horiz-adv-x="1126" d="M441 388v213l275 273v207l-64 63h-153l-64 -63v-116h-289v258l211 211h437l211 -211v-470l-274 -275v-90h-290zM461 28h255v234h-255v-234zM434 0v290h308v-290h-308zM469 416h234v74l274 274v447l-195 195h-413l-195 -195v-219h235v101l77 78h179l77 -78v-231l-273 -273 v-173z" />
<glyph unicode="@" horiz-adv-x="1878" d="M324 -70l-220 220v1155l220 219h1220l219 -219v-791l-219 -219h-260l-78 80l-80 -80h-413l-219 219v436l219 219h434l219 -219v-309l45 -45h6l45 45v516l-65 66h-926l-65 -66v-860l65 -66h1075v-301h-1222zM336 -41h1182v244h-1059l-82 82v884l82 82h950l82 -82v-540 l-61 -62h-31l-62 62v309l-202 203h-410l-203 -203v-412l203 -202h389l92 92l90 -92h236l203 202v766l-203 203h-1196l-203 -203v-1130zM827 567l-61 62v207l61 61h205l62 -61v-207l-62 -62h-205zM840 596h180l45 45v182l-45 45h-180l-45 -45v-182z" />
<glyph unicode="A" horiz-adv-x="1318" d="M118 0v1223l211 211h661l211 -211v-1223h-289v422h-505v-422h-289zM145 28h234v421h561v-421h235v1183l-196 195h-639l-195 -195v-1183zM407 711h505v370l-62 63h-381l-62 -63v-370zM379 683v410l79 78h403l79 -78v-410h-561z" />
<glyph unicode="B" horiz-adv-x="1303" d="M128 0v1434h801l211 -211v-366l-91 -91l137 -138v-417l-211 -211h-847zM156 28h807l195 194v394l-147 150v0l102 102v343l-195 195h-762v-1378zM390 262v352h427l107 -106v-167l-79 -79h-455zM390 849v322h410l79 -78v-126l-119 -118h-370zM418 290h416l62 62v145l-90 90 h-388v-297zM418 877h331l102 101v103l-63 63h-370v-267z" />
<glyph unicode="C" horiz-adv-x="1273" d="M318 0l-210 211v1012l210 211h636l212 -211v-330h-289v188l-63 63h-354l-63 -63v-729l63 -62h354l63 62v189h289v-330l-212 -211h-636zM330 28h613l196 194v291h-235v-172l-79 -79h-376l-79 79v752l79 78h376l79 -78v-172h235v290l-196 195h-613l-195 -195v-989z" />
<glyph unicode="D" horiz-adv-x="1319" d="M128 0v1434h853l211 -211v-1012l-211 -211h-853zM418 290h423l62 62v729l-62 63h-423v-854zM156 28h814l194 194v989l-194 195h-814v-1378zM390 262v909h462l79 -78v-752l-79 -79h-462z" />
<glyph unicode="E" horiz-adv-x="1167" d="M118 0v1434h932v-290h-642v-276h571v-289h-571v-289h642v-290h-932zM145 28h877v234h-642v344h571v235h-571v330h642v235h-877v-1378z" />
<glyph unicode="F" horiz-adv-x="1105" d="M118 0v1434h911v-290h-621v-276h582v-289h-582v-579h-290zM145 28h235v578h583v235h-583v330h622v235h-857v-1378z" />
<glyph unicode="G" horiz-adv-x="1308" d="M329 0l-211 211v1012l211 211h651l211 -211v-258h-289v116l-62 63h-372l-61 -65v-728l61 -61h372l62 62v142h-284v288h573v-571l-211 -211h-651zM340 28h629l195 194v533h-518v-235h284v-179l-79 -79h-392l-80 76v755l79 78h393l79 -78v-101h234v219l-195 195h-629 l-195 -195v-989z" />
<glyph unicode="H" horiz-adv-x="1326" d="M128 0v1434h290v-566h491v566h289v-1434h-289v579h-491v-579h-290zM156 28h234v578h547v-578h233v1378h-233v-565h-547v565h-234v-1378z" />
<glyph unicode="I" horiz-adv-x="1084" d="M118 0v290h280v854h-280v290h849v-290h-280v-854h280v-290h-849zM145 28h794v234h-280v909h280v235h-794v-235h281v-909h-281v-234z" />
<glyph unicode="J" horiz-adv-x="1245" d="M330 0l-212 211v366h290v-225l62 -62h305l63 62v792h-525v290h814v-1223l-212 -211h-585zM341 28h563l196 194v1184h-759v-235h524v-830l-79 -79h-327l-79 79v209h-235v-328z" />
<glyph unicode="K" horiz-adv-x="1329" d="M128 0v1434h290v-566h357l122 122v444h290v-566l-145 -143l145 -146v-579h-290v458l-122 121h-357v-579h-290zM156 28h234v578h396l139 -137v-441h234v539l-155 158l155 156v525h-234v-427l-139 -138h-396v565h-234v-1378z" />
<glyph unicode="L" horiz-adv-x="1117" d="M128 0v1434h290v-1144h622v-290h-912zM156 28h857v234h-623v1144h-234v-1378z" />
<glyph unicode="M" horiz-adv-x="1782" d="M128 0v1434h566l173 -1017h49l174 1017h565v-1434h-290v1143h-40l-176 -1020h-514l-175 1020h-42v-1143h-290zM156 28h234v1144h92l177 -1021h465l178 1021h91v-1144h234v1378h-513l-174 -1018h-95l-176 1018h-513v-1378z" />
<glyph unicode="N" horiz-adv-x="1500" d="M156 28h234v1144h89l360 -1144h506v1378h-235v-1141h-93l-354 1141h-507v-1378zM128 0v1434h556l354 -1140h44v1140h290v-1434h-556l-356 1143h-42v-1143h-290z" />
<glyph unicode="O" horiz-adv-x="1337" d="M329 0l-211 211v1012l211 211h680l211 -211v-1012l-211 -211h-680zM470 290h397l63 62v729l-63 63h-397l-62 -63v-729zM340 28h656l196 194v989l-196 195h-656l-195 -195v-989zM459 262l-79 79v752l79 78h420l78 -78v-752l-78 -79h-420z" />
<glyph unicode="P" horiz-adv-x="1288" d="M128 0v1434h851l211 -211v-565l-231 -230h-541v-428h-290zM156 28h234v428h558l214 215v540l-194 195h-812v-1378zM418 718h400l83 82v281l-62 63h-421v-426zM390 690v481h460l79 -78v-305l-100 -98h-439z" />
<glyph unicode="Q" horiz-adv-x="1375" d="M1061 -248l-248 248h-484l-211 211v1012l211 211h706l211 -211v-1012l-124 -124l135 -138zM1061 -209l158 158l-138 136v0l138 137v989l-195 195h-684l-195 -195v-989l195 -194h484zM470 290h424l63 62v729l-63 63h-424l-62 -63v-729zM459 262l-79 79v752l79 78h447 l78 -78v-752l-78 -79h-447z" />
<glyph unicode="R" horiz-adv-x="1340" d="M128 0v1434h884l211 -211v-445l-125 -114l125 -137v-527h-290v425l-103 102h-412v-527h-290zM156 28h234v527h453l118 -118v-409h234v488l-135 148l135 126v421l-195 195h-844v-1378zM418 817h452l63 64v200l-63 63h-452v-327zM390 790v381h492l79 -78v-225l-79 -78h-492 z" />
<glyph unicode="S" horiz-adv-x="1333" d="M329 0l-211 211v258h290v-117l62 -62h393l63 62v158l-63 62h-528l-211 211v440l211 211h650l211 -211v-258h-290v116l-62 63h-368l-63 -63v-156l63 -63h529l210 -211v-440l-210 -211h-676zM340 28h653l195 194v418l-195 197h-529l-78 75v181l78 78h391l79 -78v-101h234 v219l-194 195h-628l-194 -195v-416l194 -196h528l79 -74v-184l-79 -79h-415l-79 79v100h-235v-219z" />
<glyph unicode="T" horiz-adv-x="1153" d="M432 0v1144h-355v290h999v-290h-355v-1144h-289zM460 28h233v1143h356v235h-945v-235h356v-1143z" />
<glyph unicode="U" horiz-adv-x="1359" d="M329 0l-211 211v1223h290v-1082l62 -62h420l62 62v1082h290v-1223l-211 -211h-702zM340 28h680l194 194v1184h-234v-1065l-79 -79h-442l-79 79v1065h-235v-1184z" />
<glyph unicode="V" horiz-adv-x="1370" d="M513 0l-385 385v1049h290v-908l209 -208h117l208 208v908h290v-1049l-385 -385h-344zM524 28h322l368 368v1010h-234v-891l-230 -230h-129l-231 230v891h-234v-1010z" />
<glyph unicode="W" horiz-adv-x="1779" d="M128 1434h290v-1143h45l170 1020h514l171 -1020h44v1143h290v-1434h-570l-168 1017h-49l-168 -1017h-569v1434zM156 1406v-1378h515l173 1018h93l172 -1018h515v1378h-234v-1145h-95l-174 1022h-463l-174 -1022h-94v1145h-234z" />
<glyph unicode="X" horiz-adv-x="1385" d="M128 0v527l198 198l-198 195v514h290v-393l173 -173h204l173 173v393h289v-514l-195 -195l195 -198v-527h-289v407l-173 172h-204l-173 -172v-407h-290zM156 28h234v390l190 188h226l189 -188v-390h235v488l-207 209l207 207v474h-235v-376l-189 -189h-226l-190 189v376 h-234v-474l209 -207l-209 -209v-488z" />
<glyph unicode="Y" horiz-adv-x="1325" d="M517 0v454l-409 391v589h289v-485l275 -259h-20l276 259v485h290v-589l-411 -391v-454h-290zM545 28h234v437l411 392v549h-235v-469l-291 -274h-2l-292 274v469h-235v-549l410 -392v-437z" />
<glyph unicode="Z" horiz-adv-x="1149" d="M135 28h880v234h-620v114l620 613v417h-860v-235h607v-100l-627 -622v-421zM108 0v459l624 619v66h-605v290h915v-455l-618 -611v-78h618v-290h-934z" />
<glyph unicode="[" horiz-adv-x="671" d="M104 -410v1946h504v-301h-202v-1344h202v-301h-504zM133 -381h447v244h-203v1401h203v243h-447v-1888z" />
<glyph unicode="\" horiz-adv-x="638" d="M584 -206h-290l-256 1742h290zM552 -178l-248 1686h-234l247 -1686h235z" />
<glyph unicode="]" horiz-adv-x="671" d="M573 -410h-503v301h202v1344h-202v301h503v-1946zM545 -381v1888h-447v-243h203v-1401h-203v-244h447z" />
<glyph unicode="^" horiz-adv-x="933" d="M63 1004l256 458h301l249 -458h-300l-100 224v0l-104 -224h-302zM113 1032h233l123 264v0l119 -264h233l-219 402h-266z" />
<glyph unicode="_" horiz-adv-x="1183" d="M104 -262v262h975v-262h-975zM133 -233h918v204h-918v-204z" />
<glyph unicode="`" horiz-adv-x="704" d="M604 1139h-253l-291 270h294zM539 1167l-197 213h-209l229 -213h177z" />
<glyph unicode="a" d="M324 0l-211 211v292l211 211h557v40l-63 62h-691v290h832l211 -211v-684l-211 -211h-635zM453 262l-79 79v62l59 60h475v-122l-79 -79h-376zM335 28h613l195 194v663l-195 194h-792v-234h673l79 -79v-79h-573l-195 -195v-270zM465 290h353l63 62v82h-437l-43 -43v-39z " />
<glyph unicode="b" horiz-adv-x="1240" d="M340 0l-212 211v1325h290v-450l20 20h477l212 -211v-684l-212 -211h-575zM469 262l-79 79v404l98 99h298l79 -78v-425l-79 -79h-317zM480 290h295l63 62v402l-63 63h-275l-82 -83v-382zM351 28h553l196 194v662l-196 194h-454l-60 -58v488h-234v-1286z" />
<glyph unicode="c" horiz-adv-x="1233" d="M324 0l-211 211v684l211 211h782v-290h-641l-63 -62v-402l63 -62h641v-290h-782zM335 28h743v234h-624l-79 79v424l79 79h624v234h-743l-195 -194v-662z" />
<glyph unicode="d" horiz-adv-x="1240" d="M900 0h-575l-212 211v684l212 211h477l20 -20v450h290v-1325zM771 262h-317l-79 79v425l79 78h298l98 -99v-404zM760 290l62 62v382l-82 83h-275l-63 -63v-402l63 -62h295zM889 28l195 194v1286h-234v-488l-59 58h-455l-196 -194v-662l196 -194h553z" />
<glyph unicode="e" d="M959 1106l211 -211v-292l-211 -211h-557v-40l63 -62h691v-290h-832l-211 211v684l211 211h635zM830 844l79 -79v-62l-59 -60h-475v122l79 79h376zM948 1078h-613l-195 -194v-663l195 -194h792v234h-673l-79 79v79h573l195 195v270zM818 816h-353l-63 -62v-82h437l43 43 v39z" />
<glyph unicode="f" horiz-adv-x="1006" d="M284 0v817h-207v289h207v219l211 211h399v-269h-276l-45 -46v-115h321v-289h-321v-817h-289zM311 28h235v816h320v234h-320v155l61 61h259v214h-359l-196 -194v-236h-207v-234h207v-816z" />
<glyph unicode="g" horiz-adv-x="1239" d="M164 -410v289h575l83 83v58l-20 -20h-478l-211 211v684l211 211h576l211 -211v-1094l-211 -211h-736zM191 -383h698l194 196v1071l-194 195h-554l-195 -195v-662l195 -194h456l59 59v-137l-99 -98h-560v-235zM454 262l-79 79v425l79 79h317l79 -79v-386l-119 -118h-277z M465 290h255l102 102v363l-63 62h-294l-63 -62v-403z" />
<glyph unicode="h" horiz-adv-x="1239" d="M128 0v1535h290v-449l19 20h478l211 -211v-895h-289v754l-63 63h-274l-82 -83v-734h-290zM156 28h234v717l98 99h297l79 -78v-738h235v856l-195 194h-455l-59 -58v487h-234v-1479z" />
<glyph unicode="i" horiz-adv-x="994" d="M345 1267v269h330v-269h-330zM373 1294h274v214h-274v-214zM113 0v290h273v526h-273v290h562v-816h273v-290h-835zM140 28h781v234h-274v816h-507v-234h274v-582h-274v-234z" />
<glyph unicode="j" horiz-adv-x="741" d="M-15 -410v289h257l82 83v855h-339v289h628v-1305l-211 -211h-417zM12 -382h378l196 195v1265h-574v-233h339v-894l-98 -99h-241v-234zM324 1266v270h289v-270h-289zM351 1293h235v215h-235v-215z" />
<glyph unicode="k" horiz-adv-x="1166" d="M128 0v1434h290v-740h209l122 122v290h289v-412l-144 -143l144 -147v-404h-289v284l-122 120h-209v-404h-290zM156 28h234v404h248l138 -137v-267h235v365l-156 158l156 156v371h-235v-273l-138 -138h-248v739h-234v-1378z" />
<glyph unicode="l" horiz-adv-x="933" d="M46 0v290h277v956h-277v290h565v-1246h277v-290h-842zM74 28h786v234h-276v1246h-510v-234h276v-1012h-276v-234z" />
<glyph unicode="m" horiz-adv-x="1651" d="M113 0v895l211 211h396l106 -105l106 105h396l211 -211v-895h-290v754l-62 62h-154l-62 -62v-693h-290v693l-63 62h-153l-63 -62v-754h-289zM140 28h235v737l79 79h176l79 -79v-676h234v676l79 79h176l79 -79v-737h234v856l-194 194h-374l-117 -115l-117 115h-374 l-195 -194v-856z" />
<glyph unicode="n" horiz-adv-x="1208" d="M113 0v895l211 211h561l211 -211v-895h-289v754l-63 62h-280l-63 -62v-754h-288zM140 28h234v737l79 79h303l79 -79v-737h233v856l-195 194h-538l-195 -194v-856z" />
<glyph unicode="o" horiz-adv-x="1287" d="M324 0l-211 211v684l211 211h640l211 -211v-684l-211 -211h-640zM335 28h617l195 194v662l-195 194h-617l-195 -194v-662zM454 262l-79 79v424l79 79h380l78 -79v-424l-78 -79h-380zM465 290h357l63 62v402l-63 62h-357l-63 -62v-402z" />
<glyph unicode="p" horiz-adv-x="1262" d="M128 -387v1282l211 211h600l211 -211v-684l-211 -211h-502l-19 20v-407h-290zM156 -359h234v446l59 -59h479l194 194v662l-194 194h-578l-194 -194v-1243zM500 290h298l62 62v402l-62 63h-318l-62 -63v-382zM488 262l-98 98v406l79 78h340l79 -78v-425l-79 -79h-321z" />
<glyph unicode="q" horiz-adv-x="1262" d="M1135 -387h-290v407l-20 -20h-501l-211 211v684l211 211h600l211 -211v-1282zM1107 -359v1243l-195 194h-577l-195 -194v-662l195 -194h479l58 59v-446h235zM763 290l82 82v382l-63 63h-317l-63 -63v-402l63 -62h298zM774 262h-320l-79 79v425l79 78h340l78 -78v-406z " />
<glyph unicode="r" horiz-adv-x="1175" d="M113 0v289h198v513l-15 15h-181v289h259l69 -82l79 82h399l224 -224l-223 -217l-142 151h-116l-63 -62v-466h199v-288h-687zM141 28h631v232h-199v505l79 79h141l132 -141l182 180l-198 195h-375l-93 -95l-85 95h-214v-233h166l31 -32v-553h-198v-232z" />
<glyph unicode="s" horiz-adv-x="1231" d="M123 0v290h645l62 62v-5l-60 62h-446l-211 211v275l211 211h775v-290h-635l-63 -62v6l63 -63h444l211 -211v-275l-211 -211h-785zM151 28h747l194 194v253l-195 195h-444l-74 75v22l74 77h618v234h-735l-196 -194v-253l195 -195h444l74 -77v-20l-74 -77h-628v-234z" />
<glyph unicode="t" horiz-adv-x="957" d="M301 0v817h-255v289h255v280h290v-280h254v-289h-254v-527h247v-290h-537zM329 28h480v233h-246v584h254v233h-254v281h-234v-281h-255v-233h255v-817z" />
<glyph unicode="u" horiz-adv-x="1230" d="M324 0l-211 211v895h289v-754l63 -62h301l62 62v754h290v-895l-211 -211h-583zM335 28h561l195 194v856h-235v-737l-79 -79h-323l-79 79v737h-235v-856z" />
<glyph unicode="v" horiz-adv-x="1228" d="M290 0l-244 1106h316l163 -815h182l159 815h317l-240 -1106h-653zM310 28h613l224 1051h-256l-160 -812h-229l-163 811h-257z" />
<glyph unicode="w" horiz-adv-x="1651" d="M113 1106h289v-754l63 -62h153l63 62v692h290v-692l62 -62h154l62 62v754h290v-895l-211 -211h-396l-106 104l-106 -104h-396l-211 211v895zM140 1078v-856l195 -194h374l117 115l117 -115h374l194 194v856h-234v-737l-79 -79h-176l-79 79v676h-234v-676l-79 -79h-176 l-79 79v737h-235z" />
<glyph unicode="x" horiz-adv-x="1282" d="M113 0v374l186 187l-186 184v361h289v-239l162 -162h154l162 162v239h289v-361l-185 -184l185 -187v-374h-289v253l-162 162h-154l-162 -162v-253h-289zM140 28h235v236l178 178h176l178 -178v-236h235v334l-197 199l197 197v320h-235v-222l-178 -179h-176l-178 179v222 h-235v-320l199 -197l-199 -199v-334z" />
<glyph unicode="y" horiz-adv-x="1234" d="M324 0l-211 211v895h289v-754l63 -62h251l102 102v714h289v-1305l-211 -211h-732v289h571l83 83v58l-20 -20h-474zM193 -383h692l194 196v1266h-233v-699l-119 -118h-273l-79 79v738h-235v-857l195 -194h451l60 59v-137l-100 -98h-553v-235z" />
<glyph unicode="z" horiz-adv-x="1095" d="M140 28h815v234h-520v75l520 364v377h-795v-234h507v-72l-527 -375v-369zM113 0v409l527 376v31h-508v290h851v-417l-520 -366v-33h520v-290h-870z" />
<glyph unicode="{" horiz-adv-x="841" d="M285 371v-752h446v244h-203v496l-174 205l174 205v495h203v243h-446v-749l-165 -194zM557 371v-480h203v-301h-504v769l-174 205l174 205v767h504v-301h-203v-477l-165 -194z" />
<glyph unicode="|" horiz-adv-x="632" d="M166 -438v1974h301v-1974h-301zM195 -410h243v1917h-243v-1917z" />
<glyph unicode="}" horiz-adv-x="841" d="M557 371l165 193l-165 194v749h-446v-243h202v-495l174 -205l-174 -205v-496h-202v-244h446v752zM285 371l165 193l-165 194v477h-203v301h504v-767l174 -205l-174 -205v-769h-504v301h203v480z" />
<glyph unicode="~" horiz-adv-x="798" d="M115 522v139l114 115h183l57 -58h18v58h197v-140l-115 -114h-182l-57 57h-19v-57h-196zM143 550h140v41l16 17h43l57 -58h158l98 99v98h-139v-41l-16 -16h-43l-58 57h-157l-99 -98v-99z" />
<glyph unicode="&#xa1;" horiz-adv-x="571" d="M201 1036h166l63 -707v-358h-293v358zM227 1008l-61 -680v-328h235v328l-61 680h-113zM125 1434h321v-301h-321v301zM154 1405v-244h264v244h-264z" />
<glyph unicode="&#xa2;" horiz-adv-x="1206" d="M451 0v158h-95l-211 211v696l211 211h95v158h311v-158h90l211 -211v-236h-290v95l-62 62h-213l-63 -62v-414l63 -63h213l62 63v94h290v-235l-211 -211h-90v-158h-311zM478 28h256v157h107l194 195v197h-234v-78l-79 -79h-236l-78 79v436l78 79h236l79 -79v-78h234v197 l-194 194h-107v158h-256v-158h-110l-195 -194v-674l195 -195h110v-157z" />
<glyph unicode="&#xa3;" horiz-adv-x="1232" d="M77 0v290h123l62 62v207h-163v262h163v402l211 211h642v-290h-501l-62 -63v-260h194v-262h-194v-269h559v-290h-1034zM104 28h979v234h-559v0v326h194v205h-194v300l81 78h482v235h-604l-193 -194v-419h-162v-205h162v-246l-79 -80h-107v-234z" />
<glyph unicode="&#xa4;" horiz-adv-x="1269" d="M181 8l-185 186l151 151l-14 14v536l14 14l-155 156l185 185l156 -155l11 11h571l14 -13l157 157l186 -185l-158 -158l12 -12v-536l-8 -8l158 -157l-185 -186l-158 158l-18 -18h-571l-11 12zM485 438h289l63 63v253l-63 62h-289l-62 -62v-253zM183 52l147 147l26 -23h548 l31 26l158 -152l143 145l-156 154l19 21v511l-24 26l162 158l-150 147l-160 -160l-29 26h-544l-21 -20l-156 151l-144 -144l155 -156l-27 -27v-507l27 -30l-147 -150zM475 411l-80 78v276l80 79h310l79 -79v-276l-79 -78h-310z" />
<glyph unicode="&#xa5;" horiz-adv-x="1249" d="M479 0v72h-177v252h177v31h-177v228l-194 185v666h289v-562l228 -213l227 213v562h290v-666l-193 -183v-230h-180v-31h180v-252h-180v-72h-290zM507 28h234v71h181v197h-181v83h181v214h-4l196 187v626h-234v-546l-254 -237h-2l-254 237v546h-235v-626l196 -187h-1v-214 h177v-83h-176v-197h176v-71z" />
<glyph unicode="&#xa6;" horiz-adv-x="632" d="M166 681v855h301v-855h-301zM194 709h245v799h-245v-799zM166 -410v855h301v-855h-301zM194 -382h245v800h-245v-800z" />
<glyph unicode="&#xa7;" horiz-adv-x="1193" d="M138 -194v290h577l60 61l-58 58h-378l-211 211v275l66 66l-66 64v276l211 211h707v-290h-567l-59 -59l59 -60h376l211 -211v-275l-65 -65l65 -65v-276l-211 -211h-717zM166 -166h679l193 195v253l-75 75l75 77v253l-194 195h-376l-74 75v22l74 77h550v234h-667l-195 -194 v-253l76 -77l-76 -76v-253l194 -194h376l74 -77v-21l-74 -76h-560v-235zM479 504h238l58 58l-58 59h-240l-57 -58zM468 476l-74 76v21l72 75h260l74 -77v-20l-72 -75h-260z" />
<glyph unicode="&#xa8;" horiz-adv-x="966" d="M588 1159v215h217v-215h-217zM162 1159v215h217v-215h-217zM190 1188h160v158h-160v-158zM616 1188h160v158h-160v-158z" />
<glyph unicode="&#xa9;" horiz-adv-x="1656" d="M373 -29l-219 219v1053l219 219h932l219 -219v-1053l-219 -219h-932zM385 0h907l203 203v1028l-203 203h-907l-203 -203v-1028zM487 244l-81 82v782l81 82h703l82 -82v-782l-82 -82h-703zM657 336h365l149 151v152h-180v-61l-59 -62h-182l-62 62v274l62 61h182l59 -61 v-59h180v151l-149 150h-365l-149 -150v-457zM500 272h678l65 66v758l-65 65h-678l-66 -65v-758zM645 307l-166 168v481l166 166h389l166 -166v-192h-237v76l-43 45h-158l-45 -45v-250l45 -45h158l43 45v78h237v-193l-166 -168h-389z" />
<glyph unicode="&#xaa;" horiz-adv-x="906" d="M249.631 734l-135.868 135.867v188.025l135.868 135.867h358.663v25.7568l-40.5664 39.9229h-444.949v186.737h535.742l135.867 -135.867v-440.442l-135.867 -135.867h-408.89zM332.696 902.707l-50.8701 50.8701v39.9229l37.9912 38.6357h305.862v-78.5586 l-50.8691 -50.8701h-242.114zM256.714 752.029h394.724l125.564 124.921v426.92l-125.564 124.921h-509.986v-150.678h433.359l50.8691 -50.8701v-50.8691h-368.966l-125.565 -125.565v-173.858zM340.423 920.737h227.305l40.5664 39.9229v52.8018h-281.394 l-27.6885 -27.6885v-25.1133z" />
<glyph unicode="&#xab;" horiz-adv-x="1228" d="M1088 221l-458 256v300l458 250v-300l-224 -100v0l224 -105v-301zM1060 270v234l-264 123v0l264 118v234l-402 -219v-266zM578 221l-458 256v300l458 250v-300l-224 -100v0l224 -105v-301zM550 270v234l-264 123v0l264 118v234l-402 -219v-266z" />
<glyph unicode="&#xac;" horiz-adv-x="1155" d="M1051 904v-561h-290v271h-657v290h947zM1023 877h-891v-235h656v-271h235v506z" />
<glyph unicode="&#xad;" horiz-adv-x="856" d="M104 487v263h648v-263h-648zM133 516h590v205h-590v-205z" />
<glyph unicode="&#xae;" horiz-adv-x="1415" d="M344 268l-219 219v756l219 219h727l219 -219v-756l-219 -219h-727zM356 297h703l203 203v731l-203 203h-703l-202 -203v-731zM459 530l-82 82v506l82 82h497l82 -82v-506l-82 -82h-497zM471 559h473l66 66v481l-66 65h-473l-65 -65v-481zM453 616v353l165 166h216 l168 -170l-191 -162l-94 94h18l-45 -45v-236h-237zM481 645h181v219l61 62h6l84 -84l148 125l-140 139h-190l-150 -150v-311z" />
<glyph unicode="&#xaf;" horiz-adv-x="856" d="M104 1145v263h648v-263h-648zM133 1174h590v205h-590v-205z" />
<glyph unicode="&#xb0;" horiz-adv-x="905" d="M248.365 726l-135.044 135.043v437.771l135.044 135.043h409.609l135.043 -135.043v-437.771l-135.043 -135.043h-409.609zM255.405 743.92h394.889l124.803 124.163v423.69l-124.803 124.162h-394.889l-124.804 -124.162v-423.69zM331.566 893.684l-50.5605 50.5615 v271.366l50.5605 50.5605h243.206l49.9209 -50.5605v-271.366l-49.9209 -50.5615h-243.206zM338.606 911.604h228.485l40.3213 39.6807v257.286l-40.3213 39.6807h-228.485l-40.3203 -39.6807v-257.286z" />
<glyph unicode="&#xb1;" horiz-adv-x="856" d="M297 551v192h-193v263h193v192h262v-192h193v-263h-193v-192h-262zM326 580h204v192h193v205h-193v192h-204v-192h-193v-205h193v-192zM104 240v263h648v-263h-648zM133 269h590v205h-590v-205z" />
<glyph unicode="&#xb2;" horiz-adv-x="524" d="M77 850v244l90 87h134l21 20v86l-21 21h-77l-20 -21v-63h-127v123l90 87h190l90 -86v-204l-90 -89h-133l-20 -22v-57h242v-126h-369zM93 866h338v93h-244v80l32 32h132l80 80v188l-80 78h-177l-81 -78v-99h94v53l31 31h90l29 -31v-99l-30 -30h-133l-81 -78v-220z" />
<glyph unicode="&#xb3;" horiz-adv-x="523" d="M167 850l-89 89v117h126v-60l19 -20h78l21 20v63l-21 19h-82v126h82l21 23v60l-21 21h-78l-19 -21v-59h-127v117l90 89h190l89 -89v-178l-25 -25l25 -27v-176l-89 -89h-190zM174 866h177l80 80v162l-32 33l32 34v162l-80 80h-177l-81 -80v-93h94v50l30 30h91l29 -30v-74 l-29 -32h-74v-93h74l29 -30v-76l-29 -30h-91l-30 30v50h-94v-93z" />
<glyph unicode="&#xb4;" horiz-adv-x="704" d="M84 1139l250 270h294l-291 -270h-253zM150 1167h176l229 213h-209z" />
<glyph unicode="&#xb5;" horiz-adv-x="1169" d="M113 -438v1544h289v-754l63 -62h240l62 62v754h290v-895l-211 -211h-444v-438h-289zM140 -410h235v438h40h420l194 194v856h-234v-737l-79 -79h-262l-79 79v737h-235v-1488z" />
<glyph unicode="&#xb6;" horiz-adv-x="1367" d="M559 -240v668h-226l-231 230v565l211 211h911v-1674h-290v1385h-84v-1385h-291zM588 -211h233v1385h142v-1385h232v1616h-870l-195 -194v-540l214 -214h215v56v604v57h29v-1385z" />
<glyph unicode="&#xb7;" horiz-adv-x="571" d="M125 602v301h321v-301h-321zM154 631h264v243h-264v-243z" />
<glyph unicode="&#xb8;" horiz-adv-x="653" d="M82 -357v160h210l31 33l-31 31h-137v161h249l167 -192l-167 -193h-322zM109 -330h278l147 166l-147 164h-205v-105h120l54 -59l-54 -60h-193v-106z" />
<glyph unicode="&#xb9;" horiz-adv-x="477" d="M77 850v126h97v308l-97 -29v140l141 39h83v-458h99v-126h-323zM93 866h291v93h-99v458h-65l-127 -35v-105l97 31v-349h-97v-93z" />
<glyph unicode="&#xba;" horiz-adv-x="905" d="M248.365 726l-135.044 135.043v437.771l135.044 135.043h409.609l135.043 -135.043v-437.771l-135.043 -135.043h-409.609zM255.405 743.92h394.889l124.803 124.163v423.69l-124.803 124.162h-394.889l-124.804 -124.162v-423.69zM331.566 893.684l-50.5605 50.5615 v271.366l50.5605 50.5605h243.206l49.9209 -50.5605v-271.366l-49.9209 -50.5615h-243.206zM338.606 911.604h228.485l40.3213 39.6807v257.286l-40.3213 39.6807h-228.485l-40.3203 -39.6807v-257.286z" />
<glyph unicode="&#xbb;" horiz-adv-x="1228" d="M140 221v301l225 105v0l-225 100v300l459 -250v-300zM169 270l401 224v266l-401 219v-234l264 -118v0l-264 -123v-234zM650 221v301l224 105v0l-224 100v300l459 -250v-300zM679 270l401 224v266l-401 219v-234l264 -118v0l-264 -123v-234z" />
<glyph unicode="&#xbc;" horiz-adv-x="1045" d="M77 850v126h97v308l-97 -29v140l141 39h83v-458h99v-126h-323zM93 866h291v93h-99v458h-65l-127 -35v-105l97 31v-349h-97v-93zM62 0l760 1434h158l-759 -1434h-159zM90 17h123l742 1401h-123zM809 0v131h-193v139l118 314h201v-326h59v-127h-59v-131h-126zM753 258h56 v188h3l-59 -175v-13zM824 16h94v131h60v95h-60v325h-173l-112 -305v-115h191v-131zM737 242v32l65 190h22v-222h-87z" />
<glyph unicode="&#xbd;" horiz-adv-x="1089" d="M77 850v126h97v308l-97 -29v140l141 39h83v-458h99v-126h-323zM93 866h291v93h-99v458h-65l-127 -35v-105l97 31v-349h-97v-93zM62 0l760 1434h158l-759 -1434h-159zM90 17h123l742 1401h-123zM642 0v244l90 87h134l21 20v86l-21 21h-77l-20 -21v-63h-127v123l90 87h190 l90 -86v-204l-90 -89h-133l-20 -22v-57h242v-126h-369zM658 16h338v93h-244v80l32 32h132l80 80v188l-80 78h-177l-81 -78v-99h94v53l31 31h90l29 -31v-99l-30 -30h-133l-81 -78v-220z" />
<glyph unicode="&#xbe;" horiz-adv-x="1091" d="M167 850l-89 89v117h126v-60l19 -20h78l21 20v63l-21 19h-82v126h82l21 23v60l-21 21h-78l-19 -21v-59h-127v117l90 89h190l89 -89v-178l-25 -25l25 -27v-176l-89 -89h-190zM174 866h177l80 80v162l-32 33l32 34v162l-80 80h-177l-81 -80v-93h94v50l30 30h91l29 -30v-74 l-29 -32h-74v-93h74l29 -30v-76l-29 -30h-91l-30 30v50h-94v-93zM108 0l760 1434h158l-759 -1434h-159zM136 17h123l742 1401h-123zM855 0v131h-193v139l118 314h201v-326h59v-127h-59v-131h-126zM799 258h56v188h3l-59 -175v-13zM870 16h94v131h60v95h-60v325h-173 l-112 -305v-115h191v-131zM783 242v32l65 190h22v-222h-87z" />
<glyph unicode="&#xbf;" horiz-adv-x="1126" d="M704 1046v-213l-275 -273v-207l64 -63h153l64 63v116h289v-258l-211 -211h-437l-211 211v470l274 275v90h290zM684 1406h-255v-234h255v234zM711 1434v-290h-308v290h308zM676 1018h-234v-74l-274 -274v-447l195 -195h413l195 195v219h-235v-101l-77 -78h-179l-77 78v231 l273 273v173z" />
<glyph unicode="&#xc0;" horiz-adv-x="1318" d="M118 0v1223l211 211h661l211 -211v-1223h-289v422h-505v-422h-289zM145 28h234v421h561v-421h235v1183l-196 195h-639l-195 -195v-1183zM407 711h505v370l-62 63h-381l-62 -63v-370zM379 683v410l79 78h403l79 -78v-410h-561zM809 1467h-253l-291 270h294zM744 1495 l-197 213h-209l229 -213h177z" />
<glyph unicode="&#xc1;" horiz-adv-x="1342" d="M31 0l378 1434h520l383 -1434h-333l-75 303h-467l-72 -303h-334zM70 28h269l74 304h516l76 -304h268l-367 1378h-475zM457 537l148 635h123l157 -635h-428zM495 565h352l-140 578h-79zM543 1467l250 270h294l-291 -270h-253zM609 1495h176l229 213h-209z" />
<glyph unicode="&#xc2;" horiz-adv-x="1342" d="M31 0l378 1434h520l383 -1434h-333l-75 303h-467l-72 -303h-334zM70 28h269l74 304h516l76 -304h268l-367 1378h-475zM457 537l148 635h123l157 -635h-428zM495 565h352l-140 578h-79zM540 1758h258l229 -291h-284l-74 110l-75 -110h-284zM554 1729l-184 -234h208l91 133 v0l90 -133h209l-185 234h-229z" />
<glyph unicode="&#xc3;" horiz-adv-x="1318" d="M118 0v1223l211 211h661l211 -211v-1223h-289v422h-505v-422h-289zM145 28h234v421h561v-421h235v1183l-196 195h-639l-195 -195v-1183zM407 711h505v370l-62 63h-381l-62 -63v-370zM379 683v410l79 78h403l79 -78v-410h-561zM375 1467v139l114 115h183l57 -58h18v58h197 v-140l-115 -114h-182l-57 57h-19v-57h-196zM403 1495h140v41l16 17h43l57 -58h158l98 99v98h-139v-41l-16 -16h-43l-58 57h-157l-99 -98v-99z" />
<glyph unicode="&#xc4;" horiz-adv-x="1318" d="M118 0v1223l211 211h661l211 -211v-1223h-289v422h-505v-422h-289zM145 28h234v421h561v-421h235v1183l-196 195h-639l-195 -195v-1183zM407 711h505v370l-62 63h-381l-62 -63v-370zM379 683v410l79 78h403l79 -78v-410h-561zM766 1487v215h217v-215h-217zM340 1487v215 h217v-215h-217zM368 1516h160v158h-160v-158zM794 1516h160v158h-160v-158z" />
<glyph unicode="&#xc5;" horiz-adv-x="1318" d="M118 0v1223l211 211h661l211 -211v-1223h-289v422h-505v-422h-289zM145 28h234v421h561v-421h235v1183l-196 195h-639l-195 -195v-1183zM407 711h505v370l-62 63h-381l-62 -63v-370zM379 683v410l79 78h403l79 -78v-410h-561zM566 1465l-100 99v178l100 100h188l100 -100 v-178l-100 -99h-188zM580 1493h161l84 86v151l-84 84h-161l-85 -84v-151zM640 1615l-21 21v37l21 19h41l19 -19v-37l-19 -21h-41zM651 1638h18l7 7v17l-7 7h-18l-7 -7v-17z" />
<glyph unicode="&#xc6;" horiz-adv-x="1980" d="M31 0l609 1434h1175v-290h-564v-276h525v-289h-525v-289h564v-290h-853v422h-440l-177 -422h-314zM72 28h254l177 421h486v-421h798v234h-563v344h524v235h-524v330h563v235h-1129zM600 683l207 488h182v-488h-389zM641 711h321v433h-137z" />
<glyph unicode="&#xc7;" horiz-adv-x="1240" d="M427 -357v160h210l31 33l-31 31h-137v133h-161l-211 211v1012l211 211h560l212 -211v-330h-290v188l-62 63h-279l-62 -63v-729l62 -62h279l62 62v189h290v-330l-212 -211h-125l142 -164l-166 -193h-323zM454 -330h278l147 166l-146 164h-1v28h156l195 194v291h-234v-172 l-79 -79h-301l-79 79v752l79 78h301l79 -78v-172h234v290l-195 195h-538l-194 -195v-989l194 -194h177v-133h120l54 -59l-54 -60h-193v-106z" />
<glyph unicode="&#xc8;" horiz-adv-x="1167" d="M118 0v1434h932v-290h-642v-276h571v-289h-571v-289h642v-290h-932zM145 28h877v234h-642v344h571v235h-571v330h642v235h-877v-1378zM724 1467h-253l-291 270h294zM659 1495l-197 213h-209l229 -213h177z" />
<glyph unicode="&#xc9;" horiz-adv-x="1167" d="M118 0v1434h932v-290h-642v-276h571v-289h-571v-289h642v-290h-932zM145 28h877v234h-642v344h571v235h-571v330h642v235h-877v-1378zM450 1467l250 270h294l-291 -270h-253zM516 1495h176l229 213h-209z" />
<glyph unicode="&#xca;" horiz-adv-x="1167" d="M118 0v1434h932v-290h-642v-276h571v-289h-571v-289h642v-290h-932zM145 28h877v234h-642v344h571v235h-571v330h642v235h-877v-1378zM447 1758h258l229 -291h-284l-74 110l-75 -110h-284zM461 1729l-184 -234h208l91 133v0l90 -133h209l-185 234h-229z" />
<glyph unicode="&#xcb;" horiz-adv-x="1167" d="M118 0v1434h932v-290h-642v-276h571v-289h-571v-289h642v-290h-932zM145 28h877v234h-642v344h571v235h-571v330h642v235h-877v-1378zM681 1487v215h217v-215h-217zM255 1487v215h217v-215h-217zM283 1516h160v158h-160v-158zM709 1516h160v158h-160v-158z" />
<glyph unicode="&#xcc;" horiz-adv-x="1084" d="M118 0v290h280v854h-280v290h849v-290h-280v-854h280v-290h-849zM145 28h794v234h-280v909h280v235h-794v-235h281v-909h-281v-234zM691 1467h-253l-291 270h294zM626 1495l-197 213h-209l229 -213h177z" />
<glyph unicode="&#xcd;" horiz-adv-x="1084" d="M118 0v290h280v854h-280v290h849v-290h-280v-854h280v-290h-849zM145 28h794v234h-280v909h280v235h-794v-235h281v-909h-281v-234zM417 1467l250 270h294l-291 -270h-253zM483 1495h176l229 213h-209z" />
<glyph unicode="&#xce;" horiz-adv-x="1084" d="M118 0v290h280v854h-280v290h849v-290h-280v-854h280v-290h-849zM145 28h794v234h-280v909h280v235h-794v-235h281v-909h-281v-234zM414 1758h258l229 -291h-284l-74 110l-75 -110h-284zM428 1729l-184 -234h208l91 133v0l90 -133h209l-185 234h-229z" />
<glyph unicode="&#xcf;" horiz-adv-x="1084" d="M118 0v290h280v854h-280v290h849v-290h-280v-854h280v-290h-849zM145 28h794v234h-280v909h280v235h-794v-235h281v-909h-281v-234zM648 1487v215h217v-215h-217zM222 1487v215h217v-215h-217zM250 1516h160v158h-160v-158zM676 1516h160v158h-160v-158z" />
<glyph unicode="&#xd0;" horiz-adv-x="1252" d="M182 0v575h-177v263h177v596h777l211 -211v-1012l-211 -211h-777zM210 28h738l195 194v989l-195 195h-738v-596h-177v-207h177v-575zM444 262v341h263v207h-263v361h386l79 -78v-752l-79 -79h-386zM472 290h347l63 62v729l-63 63h-347v-306h262v-263h-262v-285z" />
<glyph unicode="&#xd1;" horiz-adv-x="1500" d="M156 28h234v1144h89l360 -1144h506v1378h-235v-1141h-93l-354 1141h-507v-1378zM128 0v1434h556l354 -1140h44v1140h290v-1434h-556l-356 1143h-42v-1143h-290zM468 1467v139l114 115h183l57 -58h18v58h197v-140l-115 -114h-182l-57 57h-19v-57h-196zM496 1495h140v41 l16 17h43l57 -58h158l98 99v98h-139v-41l-16 -16h-43l-58 57h-157l-99 -98v-99z" />
<glyph unicode="&#xd2;" horiz-adv-x="1337" d="M329 0l-211 211v1012l211 211h680l211 -211v-1012l-211 -211h-680zM470 290h397l63 62v729l-63 63h-397l-62 -63v-729zM340 28h656l196 194v989l-196 195h-656l-195 -195v-989zM459 262l-79 79v752l79 78h420l78 -78v-752l-78 -79h-420zM817 1467h-253l-291 270h294z M752 1495l-197 213h-209l229 -213h177z" />
<glyph unicode="&#xd3;" horiz-adv-x="1337" d="M329 0l-211 211v1012l211 211h680l211 -211v-1012l-211 -211h-680zM470 290h397l63 62v729l-63 63h-397l-62 -63v-729zM340 28h656l196 194v989l-196 195h-656l-195 -195v-989zM459 262l-79 79v752l79 78h420l78 -78v-752l-78 -79h-420zM543 1467l250 270h294l-291 -270 h-253zM609 1495h176l229 213h-209z" />
<glyph unicode="&#xd4;" horiz-adv-x="1337" d="M329 0l-211 211v1012l211 211h680l211 -211v-1012l-211 -211h-680zM470 290h397l63 62v729l-63 63h-397l-62 -63v-729zM340 28h656l196 194v989l-196 195h-656l-195 -195v-989zM459 262l-79 79v752l79 78h420l78 -78v-752l-78 -79h-420zM540 1758h258l229 -291h-284 l-74 110l-75 -110h-284zM554 1729l-184 -234h208l91 133v0l90 -133h209l-185 234h-229z" />
<glyph unicode="&#xd5;" horiz-adv-x="1337" d="M329 0l-211 211v1012l211 211h680l211 -211v-1012l-211 -211h-680zM470 290h397l63 62v729l-63 63h-397l-62 -63v-729zM340 28h656l196 194v989l-196 195h-656l-195 -195v-989zM459 262l-79 79v752l79 78h420l78 -78v-752l-78 -79h-420zM383 1467v139l114 115h183l57 -58 h18v58h197v-140l-115 -114h-182l-57 57h-19v-57h-196zM411 1495h140v41l16 17h43l57 -58h158l98 99v98h-139v-41l-16 -16h-43l-58 57h-157l-99 -98v-99z" />
<glyph unicode="&#xd6;" horiz-adv-x="1337" d="M329 0l-211 211v1012l211 211h680l211 -211v-1012l-211 -211h-680zM470 290h397l63 62v729l-63 63h-397l-62 -63v-729zM340 28h656l196 194v989l-196 195h-656l-195 -195v-989zM459 262l-79 79v752l79 78h420l78 -78v-752l-78 -79h-420zM774 1487v215h217v-215h-217z M348 1487v215h217v-215h-217zM376 1516h160v158h-160v-158zM802 1516h160v158h-160v-158z" />
<glyph unicode="&#xd7;" horiz-adv-x="856" d="M565 285l-136 136l-135 -136l-185 185l136 136l-136 135l185 186l135 -135l136 135l186 -186l-137 -135l137 -136zM565 325l146 145l-137 136l137 135l-146 146l-136 -136l-135 136l-146 -146l137 -135l-137 -136l146 -145l135 136z" />
<glyph unicode="&#xd8;" horiz-adv-x="1423" d="M311 -54l-200 142l74 105l-20 18v1012l211 211h659l18 -17l58 83l202 -140l-84 -120l17 -17v-1012l-211 -211h-659l-15 15zM555 290h339l62 62v505zM549 262h-50l485 687v-49v-559l-79 -79h-356zM305 -15l53 74l30 -31h636l195 195v988l-28 26l83 116l-156 108l-62 -88 l-32 33h-636l-195 -195v-988l27 -27l-70 -101zM427 480v52v562l79 77h360h49zM455 573l403 572h-340l-63 -64v-508z" />
<glyph unicode="&#xd9;" horiz-adv-x="1359" d="M329 0l-211 211v1223h290v-1082l62 -62h420l62 62v1082h290v-1223l-211 -211h-702zM340 28h680l194 194v1184h-234v-1065l-79 -79h-442l-79 79v1065h-235v-1184zM829 1467h-253l-291 270h294zM764 1495l-197 213h-209l229 -213h177z" />
<glyph unicode="&#xda;" horiz-adv-x="1359" d="M329 0l-211 211v1223h290v-1082l62 -62h420l62 62v1082h290v-1223l-211 -211h-702zM340 28h680l194 194v1184h-234v-1065l-79 -79h-442l-79 79v1065h-235v-1184zM555 1467l250 270h294l-291 -270h-253zM621 1495h176l229 213h-209z" />
<glyph unicode="&#xdb;" horiz-adv-x="1359" d="M329 0l-211 211v1223h290v-1082l62 -62h420l62 62v1082h290v-1223l-211 -211h-702zM340 28h680l194 194v1184h-234v-1065l-79 -79h-442l-79 79v1065h-235v-1184zM552 1758h258l229 -291h-284l-74 110l-75 -110h-284zM566 1729l-184 -234h208l91 133v0l90 -133h209 l-185 234h-229z" />
<glyph unicode="&#xdc;" horiz-adv-x="1359" d="M329 0l-211 211v1223h290v-1082l62 -62h420l62 62v1082h290v-1223l-211 -211h-702zM340 28h680l194 194v1184h-234v-1065l-79 -79h-442l-79 79v1065h-235v-1184zM787 1487v215h217v-215h-217zM361 1487v215h217v-215h-217zM389 1516h160v158h-160v-158zM815 1516h160v158 h-160v-158z" />
<glyph unicode="&#xdd;" horiz-adv-x="1325" d="M517 0v454l-409 391v589h289v-485l275 -259h-20l276 259v485h290v-589l-411 -391v-454h-290zM545 28h234v437l411 392v549h-235v-469l-291 -274h-2l-292 274v469h-235v-549l410 -392v-437zM537 1467l250 270h294l-291 -270h-253zM603 1495h176l229 213h-209z" />
<glyph unicode="&#xde;" horiz-adv-x="1159" d="M108 0v1434h289v-328h443l212 -211v-356l-212 -211h-443v-328h-289zM135 28h235v327h458l196 195v334l-196 194h-458v328h-235v-1378zM370 590v254h341l79 -78v-97l-79 -79h-341zM397 617h302l63 63v74l-63 63h-302v-200z" />
<glyph unicode="&#xdf;" horiz-adv-x="1337" d="M87 0v1223l211 211h675l211 -211v-366l-91 -91l157 -159v-376l-231 -231h-384v290h243l83 83v103l-168 168v233l102 101v103l-62 63h-394l-62 -63v-1081h-290zM115 29h234v1064l79 78h416l79 -78v-126l-102 -103v-210l167 -167v-126l-100 -100h-224v-232h344l215 214v353 l-170 170v0l104 102v343l-195 195h-653l-194 -195v-1182z" />
<glyph unicode="&#xe0;" d="M324 0l-211 211v292l211 211h557v40l-63 62h-691v290h832l211 -211v-684l-211 -211h-635zM453 262l-79 79v62l59 60h475v-122l-79 -79h-376zM335 28h613l195 194v663l-195 194h-792v-234h673l79 -79v-79h-573l-195 -195v-270zM465 290h353l63 62v82h-437l-43 -43v-39z M791 1139h-253l-291 270h294zM726 1167l-197 213h-209l229 -213h177z" />
<glyph unicode="&#xe1;" d="M324 0l-211 211v292l211 211h557v40l-63 62h-691v290h832l211 -211v-684l-211 -211h-635zM453 262l-79 79v62l59 60h475v-122l-79 -79h-376zM335 28h613l195 194v663l-195 194h-792v-234h673l79 -79v-79h-573l-195 -195v-270zM465 290h353l63 62v82h-437l-43 -43v-39z M517 1139l250 270h294l-291 -270h-253zM583 1167h176l229 213h-209z" />
<glyph unicode="&#xe2;" d="M324 0l-211 211v292l211 211h557v40l-63 62h-691v290h832l211 -211v-684l-211 -211h-635zM453 262l-79 79v62l59 60h475v-122l-79 -79h-376zM335 28h613l195 194v663l-195 194h-792v-234h673l79 -79v-79h-573l-195 -195v-270zM465 290h353l63 62v82h-437l-43 -43v-39z M514 1430h258l229 -291h-284l-74 110l-75 -110h-284zM528 1401l-184 -234h208l91 133v0l90 -133h209l-185 234h-229z" />
<glyph unicode="&#xe3;" d="M324 0l-211 211v292l211 211h557v40l-63 62h-691v290h832l211 -211v-684l-211 -211h-635zM453 262l-79 79v62l59 60h475v-122l-79 -79h-376zM335 28h613l195 194v663l-195 194h-792v-234h673l79 -79v-79h-573l-195 -195v-270zM465 290h353l63 62v82h-437l-43 -43v-39z M358 1139v139l114 115h183l57 -58h18v58h197v-140l-115 -114h-182l-57 57h-19v-57h-196zM386 1167h140v41l16 17h43l57 -58h158l98 99v98h-139v-41l-16 -16h-43l-58 57h-157l-99 -98v-99z" />
<glyph unicode="&#xe4;" d="M324 0l-211 211v292l211 211h557v40l-63 62h-691v290h832l211 -211v-684l-211 -211h-635zM453 262l-79 79v62l59 60h475v-122l-79 -79h-376zM335 28h613l195 194v663l-195 194h-792v-234h673l79 -79v-79h-573l-195 -195v-270zM465 290h353l63 62v82h-437l-43 -43v-39z M749 1159v215h217v-215h-217zM323 1159v215h217v-215h-217zM351 1188h160v158h-160v-158zM777 1188h160v158h-160v-158z" />
<glyph unicode="&#xe5;" d="M324 0l-211 211v292l211 211h557v40l-63 62h-691v290h832l211 -211v-684l-211 -211h-635zM453 262l-79 79v62l59 60h475v-122l-79 -79h-376zM335 28h613l195 194v663l-195 194h-792v-234h673l79 -79v-79h-573l-195 -195v-270zM465 290h353l63 62v82h-437l-43 -43v-39z M549 1137l-100 99v178l100 100h188l100 -100v-178l-100 -99h-188zM563 1165h161l84 86v151l-84 84h-161l-85 -84v-151zM623 1287l-21 21v37l21 19h41l19 -19v-37l-19 -21h-41zM634 1310h18l7 7v17l-7 7h-18l-7 -7v-17z" />
<glyph unicode="&#xe6;" horiz-adv-x="1832" d="M347 0l-211 211v287l211 211h350l68 66v-21l-64 62h-212l-132 -131l-233 197l223 224h497l68 -69l69 69h497l211 -211v-299l-211 -199h-351l-67 -66v21l63 -62h212l132 131l234 -197l-223 -224h-497l-69 69l-68 -69h-497zM359 28h472l81 81l81 -81h472l196 194l-192 162 l-121 -122h-237l-79 79v1l83 83h350l196 183v276l-196 194h-472l-81 -81l-81 81h-472l-195 -194l191 -162l122 122h237l79 -79v-1l-83 -83h-351l-195 -196v-263zM477 262l-79 79v58l60 60h275l60 59v-177l-79 -79h-237zM1032 588v177l79 79h237l78 -79v-58l-59 -60h-275z M489 290h212l64 62v99l-20 -20h-276l-43 -43v-36zM1060 655l19 20h277l43 43v36l-64 62h-212l-63 -62v-99z" />
<glyph unicode="&#xe7;" horiz-adv-x="1175" d="M394 -357v160h210l31 33l-31 31h-137v133h-126l-211 211v684l211 211h496l211 -211v-229h-290v88l-63 62h-213l-62 -62v-402l62 -62h213l63 62v88h290v-229l-211 -211h-96l143 -164l-167 -193h-323zM421 -330h278l147 166l-146 164h-1v28h126l195 194v191h-235v-72 l-78 -79h-236l-79 79v424l79 79h236l78 -79v-72h235v191l-195 194h-473l-194 -194v-662l194 -194h143v-133h119l55 -59l-55 -60h-193v-106z" />
<glyph unicode="&#xe8;" d="M959 1106l211 -211v-292l-211 -211h-557v-40l63 -62h691v-290h-832l-211 211v684l211 211h635zM830 844l79 -79v-62l-59 -60h-475v122l79 79h376zM948 1078h-613l-195 -194v-663l195 -194h792v234h-673l-79 79v79h573l195 195v270zM818 816h-353l-63 -62v-82h437l43 43 v39zM792 1139h-253l-291 270h294zM727 1167l-197 213h-209l229 -213h177z" />
<glyph unicode="&#xe9;" d="M959 1106l211 -211v-292l-211 -211h-557v-40l63 -62h691v-290h-832l-211 211v684l211 211h635zM830 844l79 -79v-62l-59 -60h-475v122l79 79h376zM948 1078h-613l-195 -194v-663l195 -194h792v234h-673l-79 79v79h573l195 195v270zM818 816h-353l-63 -62v-82h437l43 43 v39zM518 1139l250 270h294l-291 -270h-253zM584 1167h176l229 213h-209z" />
<glyph unicode="&#xea;" d="M959 1106l211 -211v-292l-211 -211h-557v-40l63 -62h691v-290h-832l-211 211v684l211 211h635zM830 844l79 -79v-62l-59 -60h-475v122l79 79h376zM948 1078h-613l-195 -194v-663l195 -194h792v234h-673l-79 79v79h573l195 195v270zM818 816h-353l-63 -62v-82h437l43 43 v39zM515 1430h258l229 -291h-284l-74 110l-75 -110h-284zM529 1401l-184 -234h208l91 133v0l90 -133h209l-185 234h-229z" />
<glyph unicode="&#xeb;" d="M959 1106l211 -211v-292l-211 -211h-557v-40l63 -62h691v-290h-832l-211 211v684l211 211h635zM830 844l79 -79v-62l-59 -60h-475v122l79 79h376zM948 1078h-613l-195 -194v-663l195 -194h792v234h-673l-79 79v79h573l195 195v270zM818 816h-353l-63 -62v-82h437l43 43 v39zM750 1159v215h217v-215h-217zM324 1159v215h217v-215h-217zM352 1188h160v158h-160v-158zM778 1188h160v158h-160v-158z" />
<glyph unicode="&#xec;" horiz-adv-x="1013" d="M117 0v290h245v526h-245v290h534v-816h246v-290h-780zM144 28h725v234h-245v816h-480v-234h246v-582h-246v-234zM655 1139h-253l-291 270h294zM590 1167l-197 213h-209l229 -213h177z" />
<glyph unicode="&#xed;" horiz-adv-x="1013" d="M117 0v290h245v526h-245v290h534v-816h246v-290h-780zM144 28h725v234h-245v816h-480v-234h246v-582h-246v-234zM381 1139l250 270h294l-291 -270h-253zM447 1167h176l229 213h-209z" />
<glyph unicode="&#xee;" horiz-adv-x="1013" d="M117 0v290h245v526h-245v290h534v-816h246v-290h-780zM144 28h725v234h-245v816h-480v-234h246v-582h-246v-234zM378 1430h258l229 -291h-284l-74 110l-75 -110h-284zM392 1401l-184 -234h208l91 133v0l90 -133h209l-185 234h-229z" />
<glyph unicode="&#xef;" horiz-adv-x="1013" d="M117 0v290h245v526h-245v290h534v-816h246v-290h-780zM144 28h725v234h-245v816h-480v-234h246v-582h-246v-234zM613 1159v215h217v-215h-217zM187 1159v215h217v-215h-217zM215 1188h160v158h-160v-158zM641 1188h160v158h-160v-158z" />
<glyph unicode="&#xf0;" horiz-adv-x="1146" d="M333 0l-211 211v549l211 211h191l-123 113l104 103l-248 247h403l47 -46l66 66l131 -121l-75 -73l196 -201v-848l-211 -211h-481zM462 262l-79 79v289l79 79h203l99 -99v-269l-79 -79h-223zM473 290h201l62 62v247l-83 82h-180l-62 -63v-266zM344 28h459l194 194v828 l-202 207l74 75l-96 88l-68 -67l-54 53h-329l222 -217l-106 -104l96 -86l100 100l129 -128v-106l-79 78h-340l-194 -194v-527zM736 930v28l-105 104l-91 -91h155z" />
<glyph unicode="&#xf1;" horiz-adv-x="1208" d="M113 0v895l211 211h561l211 -211v-895h-289v754l-63 62h-280l-63 -62v-754h-288zM140 28h234v737l79 79h303l79 -79v-737h233v856l-195 194h-538l-195 -194v-856zM326 1139v139l114 115h183l57 -58h18v58h197v-140l-115 -114h-182l-57 57h-19v-57h-196zM354 1167h140v41 l16 17h43l57 -58h158l98 99v98h-139v-41l-16 -16h-43l-58 57h-157l-99 -98v-99z" />
<glyph unicode="&#xf2;" horiz-adv-x="1287" d="M324 0l-211 211v684l211 211h640l211 -211v-684l-211 -211h-640zM335 28h617l195 194v662l-195 194h-617l-195 -194v-662zM454 262l-79 79v424l79 79h380l78 -79v-424l-78 -79h-380zM465 290h357l63 62v402l-63 62h-357l-63 -62v-402zM791 1139h-253l-291 270h294z M726 1167l-197 213h-209l229 -213h177z" />
<glyph unicode="&#xf3;" horiz-adv-x="1287" d="M324 0l-211 211v684l211 211h640l211 -211v-684l-211 -211h-640zM335 28h617l195 194v662l-195 194h-617l-195 -194v-662zM454 262l-79 79v424l79 79h380l78 -79v-424l-78 -79h-380zM465 290h357l63 62v402l-63 62h-357l-63 -62v-402zM517 1139l250 270h294l-291 -270 h-253zM583 1167h176l229 213h-209z" />
<glyph unicode="&#xf4;" horiz-adv-x="1287" d="M324 0l-211 211v684l211 211h640l211 -211v-684l-211 -211h-640zM335 28h617l195 194v662l-195 194h-617l-195 -194v-662zM454 262l-79 79v424l79 79h380l78 -79v-424l-78 -79h-380zM465 290h357l63 62v402l-63 62h-357l-63 -62v-402zM514 1430h258l229 -291h-284 l-74 110l-75 -110h-284zM528 1401l-184 -234h208l91 133v0l90 -133h209l-185 234h-229z" />
<glyph unicode="&#xf5;" horiz-adv-x="1287" d="M324 0l-211 211v684l211 211h640l211 -211v-684l-211 -211h-640zM335 28h617l195 194v662l-195 194h-617l-195 -194v-662zM454 262l-79 79v424l79 79h380l78 -79v-424l-78 -79h-380zM465 290h357l63 62v402l-63 62h-357l-63 -62v-402zM358 1139v139l114 115h183l57 -58 h18v58h197v-140l-115 -114h-182l-57 57h-19v-57h-196zM386 1167h140v41l16 17h43l57 -58h158l98 99v98h-139v-41l-16 -16h-43l-58 57h-157l-99 -98v-99z" />
<glyph unicode="&#xf6;" horiz-adv-x="1287" d="M324 0l-211 211v684l211 211h640l211 -211v-684l-211 -211h-640zM335 28h617l195 194v662l-195 194h-617l-195 -194v-662zM454 262l-79 79v424l79 79h380l78 -79v-424l-78 -79h-380zM465 290h357l63 62v402l-63 62h-357l-63 -62v-402zM749 1159v215h217v-215h-217z M323 1159v215h217v-215h-217zM351 1188h160v158h-160v-158zM777 1188h160v158h-160v-158z" />
<glyph unicode="&#xf7;" horiz-adv-x="856" d="M104 487v263h648v-263h-648zM133 516h590v205h-590v-205zM317 163v215h217v-215h-217zM345 192h160v158h-160v-158zM317 859v215h217v-215h-217zM345 888h160v158h-160v-158z" />
<glyph unicode="&#xf8;" horiz-adv-x="1185" d="M307 -54l-201 142l60 82l-41 41v684l211 211h497h5l41 58l200 -140l-68 -96l31 -33v-684l-209 -211h-487l-4 -5zM551 290h139l64 62v212zM300 -15l38 52l10 -9h472l196 194v662l-42 41l67 93l-155 107l-48 -66l-18 19h-472l-195 -194v-662l49 -49l-57 -79zM540 262h-42 l283 389v-64v-246l-79 -79h-162zM387 435v71v260l79 78h172h48zM415 522l218 295h-155l-63 -63v-232z" />
<glyph unicode="&#xf9;" horiz-adv-x="1230" d="M324 0l-211 211v895h289v-754l63 -62h301l62 62v754h290v-895l-211 -211h-583zM335 28h561l195 194v856h-235v-737l-79 -79h-323l-79 79v737h-235v-856zM766 1139h-253l-291 270h294zM701 1167l-197 213h-209l229 -213h177z" />
<glyph unicode="&#xfa;" horiz-adv-x="1230" d="M324 0l-211 211v895h289v-754l63 -62h301l62 62v754h290v-895l-211 -211h-583zM335 28h561l195 194v856h-235v-737l-79 -79h-323l-79 79v737h-235v-856zM492 1139l250 270h294l-291 -270h-253zM558 1167h176l229 213h-209z" />
<glyph unicode="&#xfb;" horiz-adv-x="1230" d="M324 0l-211 211v895h289v-754l63 -62h301l62 62v754h290v-895l-211 -211h-583zM335 28h561l195 194v856h-235v-737l-79 -79h-323l-79 79v737h-235v-856zM489 1430h258l229 -291h-284l-74 110l-75 -110h-284zM503 1401l-184 -234h208l91 133v0l90 -133h209l-185 234h-229z " />
<glyph unicode="&#xfc;" horiz-adv-x="1230" d="M324 0l-211 211v895h289v-754l63 -62h301l62 62v754h290v-895l-211 -211h-583zM335 28h561l195 194v856h-235v-737l-79 -79h-323l-79 79v737h-235v-856zM723 1159v215h217v-215h-217zM297 1159v215h217v-215h-217zM325 1188h160v158h-160v-158zM751 1188h160v158h-160 v-158z" />
<glyph unicode="&#xfd;" horiz-adv-x="1234" d="M324 0l-211 211v895h289v-754l63 -62h251l102 102v714h289v-1305l-211 -211h-732v289h571l83 83v58l-20 -20h-474zM193 -383h692l194 196v1266h-233v-699l-119 -118h-273l-79 79v738h-235v-857l195 -194h451l60 59v-137l-100 -98h-553v-235zM481 1139l250 270h294 l-291 -270h-253zM547 1167h176l229 213h-209z" />
<glyph unicode="&#xfe;" horiz-adv-x="1159" d="M108 -410v1946h289v-450l21 20h422l212 -211v-684l-212 -211h-422l-21 19v-429h-289zM479 289h220l63 63v402l-63 63h-220l-82 -83v-362zM135 -382h235v468l59 -58h399l196 194v662l-196 194h-399l-59 -58v488h-235v-1890zM468 262l-98 98v385l98 99h243l79 -78v-426 l-79 -78h-243z" />
<glyph unicode="&#xff;" horiz-adv-x="1234" d="M324 0l-211 211v895h289v-754l63 -62h251l102 102v714h289v-1305l-211 -211h-732v289h571l83 83v58l-20 -20h-474zM193 -383h692l194 196v1266h-233v-699l-119 -118h-273l-79 79v738h-235v-857l195 -194h451l60 59v-137l-100 -98h-553v-235zM713 1159v215h217v-215h-217z M287 1159v215h217v-215h-217zM315 1188h160v158h-160v-158zM741 1188h160v158h-160v-158z" />
<glyph unicode="&#x110;" horiz-adv-x="1252" d="M182 0v575h-177v263h177v596h777l211 -211v-1012l-211 -211h-777zM210 28h738l195 194v989l-195 195h-738v-596h-177v-207h177v-575zM444 262v341h263v207h-263v361h386l79 -78v-752l-79 -79h-386zM472 290h347l63 62v729l-63 63h-347v-306h262v-263h-262v-285z" />
<glyph unicode="&#x131;" horiz-adv-x="1013" d="M117 0v290h245v526h-245v290h534v-816h246v-290h-780zM144 28h725v234h-245v816h-480v-234h246v-582h-246v-234z" />
<glyph unicode="&#x152;" horiz-adv-x="1968" d="M372 0l-211 211v1012l211 211h1433v-290h-563v-276h523v-289h-523v-289h563v-290h-1433zM502 262l-79 79v752l79 78h399l79 -78v-752l-79 -79h-399zM513 290h377l62 62v729l-62 63h-377l-62 -63v-729zM383 28h644h10h11h730v234h-564v344h525v235h-525v330h564v235h-730 h-11h-10h-644l-195 -195v-989z" />
<glyph unicode="&#x153;" horiz-adv-x="1808" d="M333 0l-211 211v684l211 211h495l68 -66l66 66h495l211 -211v-287l-211 -211h-350l-67 -66v21l63 -62h213l132 131l233 -197l-224 -224h-495l-66 67l-67 -67h-496zM463 262l-79 79v424l79 79h236l79 -79v-424l-79 -79h-236zM475 290h212l64 62v402l-64 62h-212l-63 -62 v-402zM345 28h472l79 78l77 -78h473l194 194l-190 162l-123 -122h-235l-79 79v1l82 83h351l194 196v263l-194 194h-473l-77 -77l-79 77h-472l-195 -194v-662zM1013 588v177l79 79h235l79 -79v-58l-58 -60h-277zM1040 655l20 20h275l43 43v36l-62 62h-213l-63 -62v-99z" />
<glyph unicode="&#x178;" horiz-adv-x="1325" d="M517 0v454l-409 391v589h289v-485l275 -259h-20l276 259v485h290v-589l-411 -391v-454h-290zM545 28h234v437l411 392v549h-235v-469l-291 -274h-2l-292 274v469h-235v-549l410 -392v-437zM768 1487v215h217v-215h-217zM342 1487v215h217v-215h-217zM370 1516h160v158 h-160v-158zM796 1516h160v158h-160v-158z" />
<glyph unicode="&#x2c6;" horiz-adv-x="905" d="M324 1430h258l229 -291h-284l-74 110l-75 -110h-284zM338 1401l-184 -234h208l91 133v0l90 -133h209l-185 234h-229z" />
<glyph unicode="&#x2d9;" horiz-adv-x="540" d="M162 1159v215h217v-215h-217zM190 1188h160v158h-160v-158z" />
<glyph unicode="&#x2dc;" horiz-adv-x="798" d="M115 1139v139l114 115h183l57 -58h18v58h197v-140l-115 -114h-182l-57 57h-19v-57h-196zM143 1167h140v41l16 17h43l57 -58h158l98 99v98h-139v-41l-16 -16h-43l-58 57h-157l-99 -98v-99z" />
<glyph unicode="&#x300;" horiz-adv-x="0" d="M604 1139h-253l-291 270h294zM539 1167l-197 213h-209l229 -213h177z" />
<glyph unicode="&#x301;" horiz-adv-x="0" d="M84 1139l250 270h294l-291 -270h-253zM150 1167h176l229 213h-209z" />
<glyph unicode="&#x302;" horiz-adv-x="0" d="M324 1430h258l229 -291h-284l-74 110l-75 -110h-284zM338 1401l-184 -234h208l91 133v0l90 -133h209l-185 234h-229z" />
<glyph unicode="&#x303;" horiz-adv-x="0" d="M115 1139v139l114 115h183l57 -58h18v58h197v-140l-115 -114h-182l-57 57h-19v-57h-196zM143 1167h140v41l16 17h43l57 -58h158l98 99v98h-139v-41l-16 -16h-43l-58 57h-157l-99 -98v-99z" />
<glyph unicode="&#x308;" horiz-adv-x="0" d="M588 1159v215h217v-215h-217zM162 1159v215h217v-215h-217zM190 1188h160v158h-160v-158zM616 1188h160v158h-160v-158z" />
<glyph unicode="&#x30a;" horiz-adv-x="0" d="M521 1137l-100 99v178l100 100h188l100 -100v-178l-100 -99h-188zM535 1165h161l84 86v151l-84 84h-161l-85 -84v-151zM595 1287l-21 21v37l21 19h41l19 -19v-37l-19 -21h-41zM606 1310h18l7 7v17l-7 7h-18l-7 -7v-17z" />
<glyph unicode="&#x2000;" horiz-adv-x="921" />
<glyph unicode="&#x2001;" horiz-adv-x="1842" />
<glyph unicode="&#x2002;" horiz-adv-x="921" />
<glyph unicode="&#x2003;" horiz-adv-x="1842" />
<glyph unicode="&#x2004;" horiz-adv-x="614" />
<glyph unicode="&#x2005;" horiz-adv-x="460" />
<glyph unicode="&#x2006;" horiz-adv-x="307" />
<glyph unicode="&#x2007;" horiz-adv-x="307" />
<glyph unicode="&#x2008;" horiz-adv-x="230" />
<glyph unicode="&#x2009;" horiz-adv-x="368" />
<glyph unicode="&#x200a;" horiz-adv-x="102" />
<glyph unicode="&#x2010;" horiz-adv-x="856" d="M104 487v263h648v-263h-648zM133 516h590v205h-590v-205z" />
<glyph unicode="&#x2011;" horiz-adv-x="856" d="M104 487v263h648v-263h-648zM133 516h590v205h-590v-205z" />
<glyph unicode="&#x2012;" horiz-adv-x="856" d="M104 487v263h648v-263h-648zM133 516h590v205h-590v-205z" />
<glyph unicode="&#x2013;" horiz-adv-x="985" d="M104 487v263h777v-263h-777zM133 516h719v205h-719v-205z" />
<glyph unicode="&#x2014;" horiz-adv-x="1168" d="M104 487v263h960v-263h-960zM133 516h902v205h-902v-205z" />
<glyph unicode="&#x2018;" horiz-adv-x="571" d="M480 1434l-116 -469h-278l163 469h231zM443 1405h-174l-143 -412h215z" />
<glyph unicode="&#x2019;" horiz-adv-x="571" d="M84 965l117 469h277l-163 -469h-231zM121 993h174l143 412h-215z" />
<glyph unicode="&#x201a;" horiz-adv-x="546" d="M166 -188l-47 176v289h309v-289l-49 -176h-213zM187 -160h170l42 156v252h-252v-252z" />
<glyph unicode="&#x201c;" horiz-adv-x="890" d="M791 1434l-117 -469h-278l163 469h232zM754 1405h-174l-144 -412h215zM463 1434l-117 -469h-277l162 469h232zM426 1405h-174l-143 -412h215z" />
<glyph unicode="&#x201d;" horiz-adv-x="890" d="M84 965l117 469h277l-163 -469h-231zM121 993h174l143 412h-215zM412 965l117 469h277l-163 -469h-231zM449 993h174l143 412h-215z" />
<glyph unicode="&#x201e;" horiz-adv-x="930" d="M550 -188l-47 176v289h309v-289l-49 -176h-213zM571 -160h170l42 156v252h-252v-252zM166 -188l-47 176v289h309v-289l-49 -176h-213zM187 -160h170l42 156v252h-252v-252z" />
<glyph unicode="&#x2022;" horiz-adv-x="876" d="M318 354l-234 221v299l234 222h240l235 -222v-299l-235 -221h-240zM330 383h217l217 205v274l-217 205h-217l-217 -205v-274z" />
<glyph unicode="&#x2026;" horiz-adv-x="1261" d="M83 0v301h321v-301h-321zM112 29h264v243h-264v-243zM470 0v301h321v-301h-321zM499 29h264v243h-264v-243zM857 0v301h321v-301h-321zM886 29h264v243h-264v-243z" />
<glyph unicode="&#x202f;" horiz-adv-x="368" />
<glyph unicode="&#x2039;" horiz-adv-x="933" d="M660 221l-458 256v300l458 250v-300l-224 -100v0l224 -105v-301zM632 270v234l-264 123v0l264 118v234l-402 -219v-266z" />
<glyph unicode="&#x203a;" horiz-adv-x="933" d="M273 221v301l225 105v0l-225 100v300l459 -250v-300zM302 270l401 224v266l-401 219v-234l264 -118v0l-264 -123v-234z" />
<glyph unicode="&#x2044;" horiz-adv-x="88" d="M-415 0l760 1434h158l-759 -1434h-159zM-387 17h123l742 1401h-123z" />
<glyph unicode="&#x205f;" horiz-adv-x="460" />
<glyph unicode="&#x2074;" horiz-adv-x="480" d="M244 850v131h-193v139l118 314h201v-326h59v-127h-59v-131h-126zM188 1108h56v188h3l-59 -175v-13zM259 866h94v131h60v95h-60v325h-173l-112 -305v-115h191v-131zM172 1092v32l65 190h22v-222h-87z" />
<glyph unicode="&#x20ac;" horiz-adv-x="1327" d="M456 0l-211 211v217h-173v262h173v63h-173v262h173v208l211 211h748l-142 -290h-465l-62 -63v-66h416v-262h-416v-63h416v-262h-416v-76l62 -62h465l142 -290h-748zM467 28h693l-118 234h-456l-79 79v116h416v205h-416v119h416v205h-416v107l79 78h456l118 235h-693 l-195 -195v-225h-172v-205h172v-119h-172v-205h172v-235z" />
<glyph unicode="&#x2122;" horiz-adv-x="1765" d="M815 571v891h246l172 -452l172 452h246v-891h-219v281l-114 -281h-170l-114 282v-282h-219zM334 571v672h-219v219h659v-219h-219v-672h-221zM362 600h164v672h219v162h-602v-162h219v-672zM844 600h162v385l163 -385h127l164 383v-383h162v834h-199l-190 -496l-191 496 h-198v-834z" />
<glyph unicode="&#x25fc;" horiz-adv-x="1105" d="M0 1106h1106v-1106h-1106v1106z" />
<glyph unicode="&#xfb03;" horiz-adv-x="3006" d="M284 0v817h-207v289h207v219l211 211h399v-269h-276l-45 -46v-115h321v-289h-321v-817h-289zM311 28h235v816h320v234h-320v155l61 61h259v214h-359l-196 -194v-236h-207v-234h207v-816zM1291 0v817h-207v289h207v219l211 211h399v-269h-276l-45 -46v-115h321v-289h-321 v-817h-289zM1318 28h235v816h320v234h-320v155l61 61h259v214h-359l-196 -194v-236h-207v-234h207v-816zM2357 1267v269h330v-269h-330zM2385 1294h274v214h-274v-214zM2125 0v290h273v526h-273v290h562v-816h273v-290h-835zM2152 28h781v234h-274v816h-507v-234h274v-582 h-274v-234z" />
<glyph unicode="&#xfb04;" horiz-adv-x="2946" d="M284 0v817h-207v289h207v219l211 211h399v-269h-276l-45 -46v-115h321v-289h-321v-817h-289zM311 28h235v816h320v234h-320v155l61 61h259v214h-359l-196 -194v-236h-207v-234h207v-816zM1291 0v817h-207v289h207v219l211 211h399v-269h-276l-45 -46v-115h321v-289h-321 v-817h-289zM1318 28h235v816h320v234h-320v155l61 61h259v214h-359l-196 -194v-236h-207v-234h207v-816zM2058 0v290h277v956h-277v290h565v-1246h277v-290h-842zM2086 28h786v234h-276v1246h-510v-234h276v-1012h-276v-234z" />
<glyph horiz-adv-x="1342" d="M31 0l378 1434h520l383 -1434h-333l-75 303h-467l-72 -303h-334zM70 28h269l74 304h516l76 -304h268l-367 1378h-475zM457 537l148 635h123l157 -635h-428zM495 565h352l-140 578h-79z" />
</font>
</defs>
</svg>
